<?xml version="1.0" standalone="no"?>
<!DOCTYPE svg PUBLIC "-//W3C//DTD SVG 20010904//EN"
 "http://www.w3.org/TR/2001/REC-SVG-20010904/DTD/svg10.dtd">
<svg version="1.0" xmlns="http://www.w3.org/2000/svg"
 width="648.000000pt" height="1004.000000pt" viewBox="0 0 648.000000 1004.000000"
 preserveAspectRatio="xMidYMid meet">

<g transform="translate(0.000000,1004.000000) scale(0.100000,-0.100000)"
fill="#000000" stroke="none">
<path d="M3170 9703 c-150 -321 -556 -1106 -569 -1099 -4 3 -7 -3 -7 -12 0
-24 -274 -519 -674 -1217 -386 -674 -474 -823 -483 -818 -6 3 -7 1 -3 -6 5 -7
-27 -71 -75 -154 -115 -197 -156 -271 -284 -509 -62 -114 -116 -204 -120 -200
-5 4 -5 2 -1 -5 9 -17 -22 -75 -36 -67 -6 4 -8 3 -4 -4 9 -14 -35 -103 -47
-95 -6 3 -7 1 -4 -4 4 -6 -47 -120 -112 -254 -66 -134 -157 -333 -204 -441
-46 -109 -87 -195 -90 -192 -3 3 -4 -1 -4 -8 3 -25 -106 -307 -116 -301 -6 3
-7 1 -3 -5 4 -7 -11 -72 -33 -144 -87 -288 -151 -628 -151 -801 0 -32 -3 -56
-7 -54 -5 3 -5 -72 -1 -166 4 -95 8 -213 10 -263 2 -51 7 -89 12 -87 4 3 7
-13 4 -35 -2 -22 -1 -39 2 -37 10 6 41 -192 33 -211 -4 -11 -2 -15 4 -11 6 4
21 -36 38 -101 15 -59 41 -144 57 -190 16 -45 26 -88 22 -95 -4 -7 -4 -9 1 -5
10 10 96 -191 88 -205 -4 -6 -1 -7 7 -2 10 6 12 4 6 -11 -4 -10 -4 -15 0 -11
7 7 56 -88 57 -111 0 -6 3 -10 5 -7 9 9 63 -95 56 -108 -4 -7 -4 -9 1 -5 11
10 167 -221 158 -235 -3 -5 -1 -7 4 -4 12 8 66 -57 56 -67 -4 -3 -1 -6 5 -6
15 0 128 -139 124 -153 -2 -7 0 -9 4 -5 10 11 35 -12 27 -25 -3 -5 -1 -7 4 -4
6 4 30 -15 54 -41 24 -26 86 -87 139 -136 52 -49 94 -93 92 -97 -1 -5 2 -8 7
-7 12 4 152 -103 146 -111 -2 -4 2 -8 9 -8 22 0 136 -85 129 -96 -3 -6 -1 -7
5 -3 14 8 55 -11 48 -23 -3 -4 0 -8 7 -8 23 0 107 -55 100 -65 -3 -7 -1 -8 5
-4 15 9 195 -88 185 -99 -5 -4 -3 -5 4 -1 12 7 85 -23 79 -33 -2 -3 6 -7 17
-7 33 -2 138 -50 129 -59 -4 -5 -2 -6 4 -2 5 3 71 -15 145 -39 145 -49 321
-95 442 -115 42 -7 74 -16 71 -21 -3 -4 2 -5 11 -2 9 4 59 1 113 -6 105 -13
532 -29 526 -19 -4 6 176 22 263 23 28 1 47 3 42 6 -4 3 27 11 69 18 246 39
635 162 843 267 27 14 55 23 62 19 7 -4 9 -4 5 1 -4 4 40 34 97 66 58 32 140
81 181 109 42 27 80 47 85 44 5 -3 8 -1 7 4 -2 5 29 33 67 62 39 29 105 82
149 119 43 36 83 65 88 63 5 -1 7 1 4 6 -7 12 108 124 119 115 4 -5 5 -3 2 3
-3 6 7 24 24 40 17 16 56 59 86 96 31 37 61 64 66 61 6 -3 7 -2 4 4 -4 6 14
37 39 69 60 76 152 213 193 287 19 32 37 54 43 50 6 -3 8 -1 5 4 -7 11 96 227
104 219 3 -3 5 3 6 12 1 27 76 201 84 196 4 -2 5 6 1 18 -4 16 -2 19 8 13 9
-5 11 -4 6 4 -10 16 13 83 26 75 7 -4 8 -2 4 4 -7 11 41 191 53 202 4 3 7 21
9 40 1 19 7 37 12 38 6 2 8 8 5 12 -3 5 3 53 14 107 11 54 25 136 32 183 14
104 27 610 16 603 -5 -3 -7 22 -5 55 1 33 1 58 -2 56 -6 -7 -41 239 -35 254 3
7 0 10 -5 7 -6 -3 -10 2 -10 12 0 26 -66 292 -96 387 -14 44 -22 86 -19 95 3
8 3 12 -1 8 -10 -10 -66 144 -59 163 3 8 3 11 -1 7 -10 -10 -106 234 -99 251
3 7 1 11 -4 8 -11 -7 -42 74 -34 87 4 6 1 7 -7 2 -10 -6 -12 -3 -8 13 4 12 3
20 -1 17 -12 -7 -82 161 -75 182 4 12 3 14 -3 6 -11 -15 -227 432 -217 449 4
6 3 9 -2 5 -5 -3 -32 38 -60 91 -172 327 -205 393 -198 403 4 7 3 9 -4 6 -6
-4 -43 55 -92 145 -45 84 -141 255 -212 380 -76 134 -127 232 -122 239 4 7 3
9 -4 5 -6 -4 -21 11 -35 36 -14 24 -72 125 -131 225 -58 101 -106 185 -106
189 0 3 5 2 12 -2 7 -4 8 -3 4 5 -4 6 -11 9 -15 7 -12 -8 -193 313 -185 326 4
6 3 8 -4 5 -13 -9 -75 100 -66 115 4 6 3 8 -3 5 -11 -7 -4 -18 -210 348 -90
159 -161 296 -158 303 3 7 1 11 -4 7 -13 -7 -104 162 -95 177 4 6 3 8 -3 5
-13 -8 -96 141 -87 156 4 7 3 9 -1 4 -11 -9 -186 313 -180 331 3 7 1 11 -4 8
-9 -6 -218 390 -311 587 -28 59 -48 113 -44 119 4 6 3 8 -3 5 -6 -4 -24 24
-42 63 -18 39 -34 70 -35 70 -1 0 -31 -62 -66 -137z m-429 -1881 c-50 -115
-132 -301 -182 -413 -50 -112 -111 -247 -134 -299 -75 -169 -291 -642 -340
-745 -585 -1234 -805 -1749 -990 -2315 -15 -47 -36 -102 -47 -123 -17 -34 -23
-38 -51 -35 -51 5 -70 51 -63 157 22 312 239 883 604 1591 172 335 228 439
487 915 150 275 336 617 413 760 77 143 171 319 210 390 38 72 94 178 123 238
30 59 55 103 57 98 2 -5 -38 -104 -87 -219z m2749 -3209 c0 -5 24 -33 52 -63
29 -30 52 -59 53 -63 0 -5 9 -15 19 -23 11 -8 16 -14 10 -14 -5 0 -1 -7 9 -14
10 -8 18 -17 18 -20 -2 -17 1 -23 23 -48 14 -14 22 -29 19 -32 -4 -3 -1 -6 6
-6 7 0 10 -4 7 -9 -3 -5 6 -20 19 -35 14 -15 28 -39 31 -54 4 -15 10 -29 13
-32 8 -7 60 -122 63 -140 2 -8 6 -17 9 -20 14 -11 102 -306 102 -342 0 -20 3
-35 8 -33 4 3 8 -3 7 -12 0 -10 7 -52 15 -93 45 -222 49 -644 8 -875 -113
-637 -428 -1192 -916 -1611 -349 -301 -876 -544 -1185 -548 -85 -1 -100 2
-147 26 -162 86 -297 289 -310 469 -6 79 7 127 50 175 37 43 52 51 218 113 74
27 180 70 237 95 56 25 102 42 102 38 0 -4 4 -2 8 4 4 5 48 32 97 58 101 55
231 135 288 179 20 16 37 25 37 20 0 -4 4 -3 8 3 4 6 48 45 98 87 108 89 241
221 315 312 29 36 56 65 61 65 5 0 7 4 3 9 -3 5 5 17 17 25 12 9 19 16 16 16
-4 0 16 35 44 78 248 374 384 783 433 1312 21 216 24 853 5 865 -6 3 -5 16 0
30 9 24 4 55 -11 65 -15 10 3 50 22 50 11 0 19 -3 19 -7z"/>
<path d="M6333 3230 c0 -25 2 -35 4 -22 2 12 2 32 0 45 -2 12 -4 2 -4 -23z"/>
</g>
</svg>
